TITLE ""
FILE "P1Q_t_1539-1548.mp3" MP3
  TRACK 01 AUDIO
    TITLE "P1Q_t_1539-1548_01"
    INDEX 01 00:00:00
  TRACK 02 AUDIO
    TITLE "P1Q_t_1539-1548_02"
    INDEX 01 00:01:23
  TRACK 03 AUDIO
    TITLE "P1Q_t_1539-1548_03"
    INDEX 01 00:01:45
  TRACK 04 AUDIO
    TITLE "P1Q_t_1539-1548_04"
    INDEX 01 00:03:73
  TRACK 05 AUDIO
    TITLE "P1Q_t_1539-1548_05"
    INDEX 01 00:04:16
  TRACK 06 AUDIO
    TITLE "P1Q_t_1539-1548_06"
    INDEX 01 00:08:69
  TRACK 07 AUDIO
    TITLE "P1Q_t_1539-1548_07"
    INDEX 01 00:09:41
  TRACK 08 AUDIO
    TITLE "P1Q_t_1539-1548_08"
    INDEX 01 00:10:60
  TRACK 09 AUDIO
    TITLE "P1Q_t_1539-1548_09"
    INDEX 01 00:11:04
  TRACK 10 AUDIO
    TITLE "P1Q_t_1539-1548_10"
    INDEX 01 00:15:43
  TRACK 11 AUDIO
    TITLE "P1Q_t_1539-1548_11"
    INDEX 01 00:15:63
  TRACK 12 AUDIO
    TITLE "P1Q_t_1539-1548_12"
    INDEX 01 00:21:52
  TRACK 13 AUDIO
    TITLE "P1Q_t_1539-1548_13"
    INDEX 01 00:22:22
  TRACK 14 AUDIO
    TITLE "P1Q_t_1539-1548_14"
    INDEX 01 00:23:43
  TRACK 15 AUDIO
    TITLE "P1Q_t_1539-1548_15"
    INDEX 01 00:23:62
  TRACK 16 AUDIO
    TITLE "P1Q_t_1539-1548_16"
    INDEX 01 00:25:06
  TRACK 17 AUDIO
    TITLE "P1Q_t_1539-1548_17"
    INDEX 01 00:25:26
  TRACK 18 AUDIO
    TITLE "P1Q_t_1539-1548_18"
    INDEX 01 00:30:04
  TRACK 19 AUDIO
    TITLE "P1Q_t_1539-1548_19"
    INDEX 01 00:30:54
  TRACK 20 AUDIO
    TITLE "P1Q_t_1539-1548_20"
    INDEX 01 00:32:01
  TRACK 21 AUDIO
    TITLE "P1Q_t_1539-1548_21"
    INDEX 01 00:32:22
  TRACK 22 AUDIO
    TITLE "P1Q_t_1539-1548_22"
    INDEX 01 00:36:67
  TRACK 23 AUDIO
    TITLE "P1Q_t_1539-1548_23"
    INDEX 01 00:37:11
  TRACK 24 AUDIO
    TITLE "P1Q_t_1539-1548_24"
    INDEX 01 00:41:11
  TRACK 25 AUDIO
    TITLE "P1Q_t_1539-1548_25"
    INDEX 01 00:41:58
  TRACK 26 AUDIO
    TITLE "P1Q_t_1539-1548_26"
    INDEX 01 00:43:02
  TRACK 27 AUDIO
    TITLE "P1Q_t_1539-1548_27"
    INDEX 01 00:43:22
  TRACK 28 AUDIO
    TITLE "P1Q_t_1539-1548_28"
    INDEX 01 00:46:55
  TRACK 29 AUDIO
    TITLE "P1Q_t_1539-1548_29"
    INDEX 01 00:46:75
  TRACK 30 AUDIO
    TITLE "P1Q_t_1539-1548_30"
    INDEX 01 00:51:45
  TRACK 31 AUDIO
    TITLE "P1Q_t_1539-1548_31"
    INDEX 01 00:52:15
  TRACK 32 AUDIO
    TITLE "P1Q_t_1539-1548_32"
    INDEX 01 00:53:30
  TRACK 33 AUDIO
    TITLE "P1Q_t_1539-1548_33"
    INDEX 01 00:53:52
  TRACK 34 AUDIO
    TITLE "P1Q_t_1539-1548_34"
    INDEX 01 00:56:64
  TRACK 35 AUDIO
    TITLE "P1Q_t_1539-1548_35"
    INDEX 01 00:57:08
  TRACK 36 AUDIO
    TITLE "P1Q_t_1539-1548_36"
    INDEX 01 01:01:39
  TRACK 37 AUDIO
    TITLE "P1Q_t_1539-1548_37"
    INDEX 01 01:02:09
  TRACK 38 AUDIO
    TITLE "P1Q_t_1539-1548_38"
    INDEX 01 01:03:23
  TRACK 39 AUDIO
    TITLE "P1Q_t_1539-1548_39"
    INDEX 01 01:03:42
  TRACK 40 AUDIO
    TITLE "P1Q_t_1539-1548_40"
    INDEX 01 01:07:15
  TRACK 41 AUDIO
    TITLE "P1Q_t_1539-1548_41"
    INDEX 01 01:07:34
  TRACK 42 AUDIO
    TITLE "P1Q_t_1539-1548_42"
    INDEX 01 01:11:44
  TRACK 43 AUDIO
    TITLE "P1Q_t_1539-1548_43"
    INDEX 01 01:12:14
  TRACK 44 AUDIO
    TITLE "P1Q_t_1539-1548_44"
    INDEX 01 01:13:35
  TRACK 45 AUDIO
    TITLE "P1Q_t_1539-1548_45"
    INDEX 01 01:13:54
  TRACK 46 AUDIO
    TITLE "P1Q_t_1539-1548_46"
    INDEX 01 01:17:40
  TRACK 47 AUDIO
    TITLE "P1Q_t_1539-1548_47"
    INDEX 01 01:17:60
  TRACK 48 AUDIO
    TITLE "P1Q_t_1539-1548_48"
    INDEX 01 01:23:63
  TRACK 49 AUDIO
    TITLE "P1Q_t_1539-1548_49"
    INDEX 01 01:24:33
  TRACK 50 AUDIO
    TITLE "P1Q_t_1539-1548_50"
    INDEX 01 01:25:44
  TRACK 51 AUDIO
    TITLE "P1Q_t_1539-1548_51"
    INDEX 01 01:25:67
  TRACK 52 AUDIO
    TITLE "P1Q_t_1539-1548_52"
    INDEX 01 01:28:24
  TRACK 53 AUDIO
    TITLE "P1Q_t_1539-1548_53"
    INDEX 01 01:28:44
  TRACK 54 AUDIO
    TITLE "P1Q_t_1539-1548_54"
    INDEX 01 01:33:39
  TRACK 55 AUDIO
    TITLE "P1Q_t_1539-1548_55"
    INDEX 01 01:34:13
  TRACK 56 AUDIO
    TITLE "P1Q_t_1539-1548_56"
    INDEX 01 01:35:15
  TRACK 57 AUDIO
    TITLE "P1Q_t_1539-1548_57"
    INDEX 01 01:35:38
  TRACK 58 AUDIO
    TITLE "P1Q_t_1539-1548_58"
    INDEX 01 01:38:33
  TRACK 59 AUDIO
    TITLE "P1Q_t_1539-1548_59"
    INDEX 01 01:38:54
  TRACK 60 AUDIO
    TITLE "P1Q_t_1539-1548_60"
    INDEX 01 01:42:46
